<svg xmlns="http://www.w3.org/2000/svg" viewBox="0 0 1800 1100" preserveAspectRatio="xMidYMid slice">
  <defs>
    <linearGradient id="wall" x1="0" y1="0" x2="1" y2="1">
      <stop offset="0" stop-color="#2a2925"/>
      <stop offset="0.55" stop-color="#151514"/>
      <stop offset="1" stop-color="#4b4031"/>
    </linearGradient>
    <linearGradient id="counter" x1="0" y1="0" x2="1" y2="0">
      <stop offset="0" stop-color="#f2eee5"/>
      <stop offset="1" stop-color="#cfc6b7"/>
    </linearGradient>
    <linearGradient id="wood" x1="0" y1="0" x2="0" y2="1">
      <stop offset="0" stop-color="#69513b"/>
      <stop offset="1" stop-color="#2a2119"/>
    </linearGradient>
    <filter id="soft" x="-20%" y="-20%" width="140%" height="140%">
      <feGaussianBlur stdDeviation="22"/>
    </filter>
  </defs>
  <rect width="1800" height="1100" fill="url(#wall)"/>
  <circle cx="1420" cy="165" r="280" fill="#b89255" opacity="0.18" filter="url(#soft)"/>
  <rect x="980" y="170" width="520" height="640" rx="8" fill="#1b1b1a" stroke="#7f735f" stroke-width="7"/>
  <rect x="1028" y="220" width="424" height="540" rx="4" fill="#0f0f0f" stroke="#342f27" stroke-width="3"/>
  <line x1="1240" y1="220" x2="1240" y2="760" stroke="#6e6251" stroke-width="6" opacity="0.85"/>
  <circle cx="1192" cy="500" r="11" fill="#b89255"/>
  <circle cx="1288" cy="500" r="11" fill="#b89255"/>
  <rect x="170" y="635" width="1460" height="105" fill="url(#counter)"/>
  <rect x="205" y="740" width="1390" height="250" fill="url(#wood)"/>
  <g opacity="0.9">
    <rect x="250" y="775" width="260" height="180" fill="#392b20" stroke="#7b6046"/>
    <rect x="535" y="775" width="260" height="180" fill="#34271d" stroke="#7b6046"/>
    <rect x="820" y="775" width="260" height="180" fill="#392b20" stroke="#7b6046"/>
    <rect x="1105" y="775" width="430" height="180" fill="#31251c" stroke="#7b6046"/>
  </g>
  <rect x="330" y="435" width="420" height="190" fill="#20201e" stroke="#6f604c" stroke-width="5"/>
  <rect x="365" y="470" width="350" height="120" fill="#111"/>
  <rect x="842" y="505" width="70" height="130" rx="8" fill="#a77a3f" opacity="0.75"/>
  <rect x="900" y="490" width="22" height="145" rx="8" fill="#d9caa8" opacity="0.7"/>
  <path d="M0 0H1800V1100H0Z" fill="rgba(0,0,0,0.14)"/>
</svg>