<svg xmlns="http://www.w3.org/2000/svg" viewBox="0 0 1800 1100" preserveAspectRatio="xMidYMid slice" role="img" aria-label="Luxury modern kitchen with integrated premium appliances">
  <defs>
    <linearGradient id="wall" x1="0" y1="0" x2="1" y2="1"><stop offset="0" stop-color="#25231f"/><stop offset="0.52" stop-color="#11110f"/><stop offset="1" stop-color="#3a3024"/></linearGradient>
    <linearGradient id="cabinet" x1="0" y1="0" x2="0" y2="1"><stop offset="0" stop-color="#34312b"/><stop offset="1" stop-color="#181715"/></linearGradient>
    <linearGradient id="stone" x1="0" y1="0" x2="1" y2="0"><stop offset="0" stop-color="#f4eee2"/><stop offset="0.55" stop-color="#d6cab8"/><stop offset="1" stop-color="#b9aa93"/></linearGradient>
    <linearGradient id="steel" x1="0" y1="0" x2="1" y2="0"><stop offset="0" stop-color="#5d6262"/><stop offset="0.5" stop-color="#c8cbc7"/><stop offset="1" stop-color="#565a58"/></linearGradient>
    <radialGradient id="lampGlow" cx="50%" cy="52%" r="60%"><stop offset="0" stop-color="#e7c889" stop-opacity="0.46"/><stop offset="1" stop-color="#e7c889" stop-opacity="0"/></radialGradient>
    <filter id="blur" x="-20%" y="-20%" width="140%" height="140%"><feGaussianBlur stdDeviation="20"/></filter>
  </defs>
  <rect width="1800" height="1100" fill="url(#wall)"/>
  <rect x="0" y="710" width="1800" height="390" fill="#171614"/>
  <ellipse cx="1420" cy="210" rx="420" ry="270" fill="#b28b52" opacity="0.14" filter="url(#blur)"/>
  <g opacity="0.32" stroke="#6b6254" stroke-width="2">
    <path d="M120 170H1680"/><path d="M120 250H1680"/><path d="M120 330H1680"/><path d="M120 410H1680"/><path d="M120 490H1680"/><path d="M120 570H1680"/>
    <path d="M280 130V610"/><path d="M520 130V610"/><path d="M760 130V610"/><path d="M1000 130V610"/><path d="M1240 130V610"/><path d="M1480 130V610"/>
  </g>
  <g id="appliance-wall">
    <rect x="1048" y="158" width="470" height="582" rx="10" fill="#111" stroke="#6d6254" stroke-width="7"/>
    <rect x="1086" y="205" width="394" height="488" rx="5" fill="url(#steel)" opacity="0.85"/>
    <rect x="1114" y="234" width="338" height="430" rx="3" fill="#10100f"/>
    <path d="M1283 234V664" stroke="#8d806d" stroke-width="7"/>
    <circle cx="1244" cy="466" r="10" fill="#b89152"/><circle cx="1322" cy="466" r="10" fill="#b89152"/>
    <rect x="1138" y="258" width="104" height="382" fill="#181816"/><rect x="1324" y="258" width="104" height="382" fill="#181816"/>
  </g>
  <g id="range-zone">
    <path d="M540 185H910L850 420H600Z" fill="#191918" stroke="#8f806a" stroke-width="5"/>
    <rect x="470" y="423" width="515" height="36" fill="url(#steel)" opacity="0.74"/>
    <rect x="426" y="459" width="604" height="184" fill="#161615" stroke="#6d6254" stroke-width="5"/>
    <rect x="486" y="500" width="484" height="86" rx="42" fill="#0b0b0b" stroke="#92846e" stroke-width="4"/>
    <ellipse cx="610" cy="543" rx="54" ry="16" fill="none" stroke="#b89152" stroke-width="4" opacity="0.68"/>
    <ellipse cx="744" cy="543" rx="60" ry="18" fill="none" stroke="#b89152" stroke-width="4" opacity="0.7"/>
    <ellipse cx="884" cy="543" rx="52" ry="15" fill="none" stroke="#b89152" stroke-width="4" opacity="0.66"/>
    <rect x="596" y="604" width="272" height="18" rx="9" fill="#b89152" opacity="0.75"/>
  </g>
  <g id="tall-cabinetry">
    <rect x="175" y="145" width="248" height="600" fill="url(#cabinet)" stroke="#625746" stroke-width="4"/>
    <rect x="197" y="180" width="204" height="240" fill="#24221d" stroke="#4c4336"/>
    <rect x="197" y="450" width="204" height="252" fill="#1b1a17" stroke="#4c4336"/>
    <path d="M402 180V702" stroke="#b89152" stroke-width="4" opacity="0.7"/>
  </g>
  <g id="island">
    <rect x="160" y="665" width="1465" height="92" fill="url(#stone)"/>
    <path d="M210 753H1580L1515 1044H275Z" fill="#231d17"/>
    <path d="M302 790H622V1008H302Z" fill="#30261d" stroke="#796146" stroke-width="3"/>
    <path d="M646 790H960V1008H646Z" fill="#292119" stroke="#796146" stroke-width="3"/>
    <path d="M984 790H1322V1008H984Z" fill="#30261d" stroke="#796146" stroke-width="3"/>
    <rect x="1360" y="802" width="95" height="190" rx="46" fill="#0d0d0c" stroke="#75634c" stroke-width="4"/>
    <path d="M180 665H1625" stroke="#fff5e5" stroke-width="5" opacity="0.46"/>
  </g>
  <g id="pendants">
    <path d="M612 0V160M886 0V148M1160 0V168" stroke="#8d7554" stroke-width="4"/>
    <ellipse cx="612" cy="188" rx="86" ry="62" fill="url(#lampGlow)" filter="url(#blur)"/>
    <ellipse cx="886" cy="176" rx="86" ry="62" fill="url(#lampGlow)" filter="url(#blur)"/>
    <ellipse cx="1160" cy="196" rx="86" ry="62" fill="url(#lampGlow)" filter="url(#blur)"/>
    <path d="M552 160H672L638 225H586Z" fill="#141312" stroke="#a77a3f" stroke-width="4"/>
    <path d="M826 148H946L912 213H860Z" fill="#141312" stroke="#a77a3f" stroke-width="4"/>
    <path d="M1100 168H1220L1186 233H1134Z" fill="#141312" stroke="#a77a3f" stroke-width="4"/>
  </g>
  <rect width="1800" height="1100" fill="#000" opacity="0.1"/>
</svg>